<svg xmlns="http://www.w3.org/2000/svg" width="196" height="38.247" viewBox="0 0 196 38.247">
                    <g id="Group_304970" data-name="Group 304970" transform="translate(-142 -80)">
                      <path id="Path_1" data-name="Path 1" d="M115.739,9.956V6.144H89.878v5.444h12.658L89.878,23.567v4.356h25.861V22.478H103.217L115.739,10.5Zm59.889-3.811h8.167V27.922h-8.167ZM153.85,13.9V6.144h-8.167V27.922h8.167V19.347l8.575,8.575H173.45L161.2,16.489,173.722,6.144H162.7ZM134.794,6.144v13.2c0,1.906-.544,4.219-4.9,4.219s-4.628-2.314-4.628-4.219V6.144H117.1V20.028c0,6.533,1.769,9.256,12.522,9.256s13.339-2.722,13.339-9.256V6.144Zm-54.444,0v13.2c0,1.906-.544,4.219-4.9,4.219s-4.628-2.314-4.628-4.219V6.144H62.656V20.028c0,6.533,2.586,9.256,13.339,9.256s12.522-2.722,12.522-9.256V6.144ZM44.281,21.117c.408,1.5,1.361,2.45,4.083,2.45,2.042,0,2.994-.408,2.994-1.089,0-1.769-1.225-1.769-9.528-2.858-8.167-1.089-7.894-6.261-7.894-7.078,0-6.942,9.8-6.942,13.2-6.942,6.125,0,12.794,1.906,12.794,7.214H50.406c-.272-1.089-1.633-2.178-4.083-2.178-2.042,0-3.131.408-3.131,1.225,0,1.5.681,1.361,8.711,2.586,8.167,1.225,8.983,5.172,8.983,7.35,0,7.214-10.072,6.806-13.475,6.806-8.167,0-13.339-1.769-13.611-7.622H44.281Z" transform="translate(154.206 82.022)" fill="#18181b"/>
                      <path id="Path_2" data-name="Path 2" d="M37.431,13.2c-2.314,1.906-9.256,4.628-13.475,1.906L14.156,8.3l-1.633.953L37.431,26.542c-6.261,2.45-13.475,7.35-18.647,11.706L.272,25.044C2.994,23,9.392,20.553,13.611,23.275l9.936,6.942,1.361-.953L0,11.842C5.308,9.936,14.972,3.947,18.647,0Z" transform="translate(142 80)" fill="#18181b"/>
                    </g>
                  </svg>